<svg width="40" height="40" viewBox="0 0 40 40" fill="none" xmlns="http://www.w3.org/2000/svg">
<g clip-path="url(#clip0_2331_1284)">
<path d="M32.7626 0V2.33463H30.4279V5.52529C30.4279 5.62335 29.9828 6.52607 29.8739 6.68327C28.9883 7.95953 25.2902 10.0311 23.8147 11.0599C23.6964 11.1424 23.5719 11.2047 23.4225 11.2047V16.4965H16.5743V11.2047C16.4264 11.2047 16.3019 11.1424 16.182 11.0599C14.7065 10.0296 11.0101 7.95953 10.1229 6.68327C10.0139 6.52607 9.56881 5.62335 9.56881 5.52529V2.33463H7.23418V0H32.7595H32.7626Z" fill="#333333"/>
<path d="M21.0894 18.8328C21.1315 19.3573 21.0225 19.9472 21.0972 20.4592C21.2575 21.5674 22.2474 21.5721 23.0661 22.0701C27.2653 24.6304 26.4373 31.0273 21.7976 32.5355L20.6225 32.839H31.6731C30.1805 34.9308 30.1774 37.7464 31.6731 39.8429H8.32678C9.81628 37.6966 9.81005 34.976 8.32678 32.839H19.3774L18.2023 32.5355C13.5626 31.0273 12.7346 24.6289 16.9338 22.0701C17.7525 21.5705 18.7423 21.5674 18.9027 20.4592C18.9774 19.9472 18.8684 19.3573 18.9104 18.8328H21.0894ZM19.9408 25.3791L18.2894 27.004L20.0575 28.6289L21.7089 27.004L19.9408 25.3791ZM16.5758 35.1752H14.0855V37.5098H16.5758V35.1752ZM21.2451 35.1752H18.7548V37.5098H21.2451V35.1752ZM25.9143 35.1752H23.4241V37.5098H25.9143V35.1752Z" fill="#333333"/>
<path d="M3.15325 32.8793C7.1766 32.3533 8.65675 38.2459 4.74391 39.6077C-0.0934438 41.2918 -1.85064 33.5346 3.15325 32.8793ZM4.74702 35.175H2.41239V37.5097H4.74702V35.175Z" fill="#333333"/>
<path d="M35.9937 32.8793C40.017 32.3533 41.4972 38.2459 37.5844 39.6077C32.747 41.2918 30.9898 33.5346 35.9937 32.8793ZM37.5875 35.175H35.2528V37.5097H37.5875V35.175Z" fill="#333333"/>
</g>
<defs>
<clipPath id="clip0_2331_1284">
<rect width="39.8444" height="40" fill="white" transform="translate(0.0778198)"/>
</clipPath>
</defs>
</svg>
