<svg width="39" height="40" viewBox="0 0 39 40" fill="none" xmlns="http://www.w3.org/2000/svg">
<g clip-path="url(#clip0_2331_1348)">
<path d="M16.8044 39.5653C16.8113 39.6157 17.0635 39.7549 16.9783 39.8244C16.427 39.8975 15.9435 39.3601 15.7661 38.8644C14.9905 36.7201 15.2235 33.254 14.3992 30.8401C13.8566 29.2505 13.5244 31.4923 13.3818 32.1392C12.8826 34.4018 12.7592 36.7409 12.2444 39.0018C11.3539 40.4957 9.42177 40.0105 9.49656 38.1792C9.60438 35.5062 10.3992 32.534 10.5539 29.8314C10.6618 27.9253 10.8009 23.6105 10.5053 21.8644C10.2392 20.3009 6.44438 17.0296 5.23916 15.6523C4.92786 15.2975 3.94873 14.1914 3.94873 13.8227C3.94873 13.0505 4.83743 12.6244 5.51221 12.9444C6.95916 13.974 8.21134 15.4331 9.59395 16.5149C11.5922 18.0766 12.0044 17.3809 14.2826 17.5653C16.5609 17.7496 17.6131 18.6262 18.3313 20.7879C17.8913 21.1479 17.4444 21.4853 17.0566 21.9079C16.8583 22.1236 16.7887 22.6644 16.4618 22.4314C16.4374 22.414 16.3957 22.0836 16.2131 21.9027C15.1887 20.8923 13.6061 20.9357 12.8061 22.1705C11.2513 24.5688 15.6826 26.5549 15.9383 28.9531C16.0426 29.9323 15.8009 31.1218 15.947 32.0749C16.0218 32.5653 16.8061 33.6818 16.8061 33.8244C16.8061 35.5062 16.5922 38.0018 16.8061 39.5636L16.8044 39.5653Z" fill="#333333"/>
<path d="M22.0218 34.0871C21.8879 33.9601 22.8183 32.4766 22.8809 32.0766C23.0287 31.1288 22.7853 29.9323 22.8896 28.9549C23.114 26.8488 26.4357 25.0853 26.3766 23.2227C26.3087 21.0766 23.1696 20.3758 22.3661 22.4331H22.1105C21.6618 21.8384 21.2705 21.1671 20.467 21.0279C20.2027 20.6697 21.4044 18.7984 21.7331 18.494C23.1748 17.1584 25.6113 17.7827 27.3105 17.5497C28.9227 17.3305 31.5679 14.0018 33.0531 13.0331C33.4948 12.7462 34.1522 12.7966 34.5557 13.1566L34.627 14.4297L28.7244 20.701C27.7766 22.1671 28.1105 25.6505 28.2827 27.3879C28.5035 29.6227 29.0496 31.854 29.3261 34.0836H22.0218V34.0871Z" fill="#333333"/>
<path d="M14.3192 22.4662C15.2879 22.1844 16.0983 23.8557 16.7139 24.5253C17.8183 25.7288 19.1974 26.8453 20.8913 25.741C21.7626 25.174 23.2548 22.7583 23.7609 22.5236C24.5644 22.1496 25.4183 22.8627 24.9905 23.7531C24.5626 24.6436 23.0879 25.887 22.4705 26.7983C21.1261 28.7827 21.9957 29.8783 21.6322 31.8731C21.4983 32.6053 20.9018 33.0766 20.8026 34.0001C20.6913 35.021 21.0357 39.1044 20.6461 39.5827C20.1592 40.1792 18.2861 40.1288 18.0548 39.3601C17.7192 38.2418 18.1748 35.4018 18.0235 34.0001C17.9209 33.0523 17.2774 32.5323 17.1679 31.7253C16.907 29.8227 17.6183 28.7444 16.427 26.901C15.9296 26.1305 13.8548 24.1201 13.7053 23.5218C13.5974 23.0905 13.9192 22.5827 14.3209 22.4662H14.3192Z" fill="#333333"/>
<path d="M10.5417 15.6522C9.31736 14.9861 9.21823 13.9722 8.66171 12.9252C8.37649 12.3878 7.81127 11.6939 7.40779 11.2226C5.48084 8.95824 3.14692 6.83302 1.17301 4.5878C0.564313 3.12172 1.52953 2.24867 2.87388 3.23476C4.58866 4.49389 6.73475 7.42954 8.88779 7.65563C10.4304 7.81737 12.2269 7.26606 13.6217 8.13911C14.1747 8.4852 14.893 9.41911 14.6269 10.08C14.0182 11.5878 13.1104 11.1774 12.0478 11.8556C10.6391 12.7548 10.3956 14.0695 10.54 15.6539L10.5417 15.6522Z" fill="#333333"/>
<path d="M18.5435 13.5653C19.7713 13.3287 20.8965 12.5809 22.1957 12.6974C21.3157 14.0035 21.6078 15.5044 22.1957 16.8679C20.7435 17.2974 20.0513 18.7983 19.3243 20C18.8304 18.6957 17.94 17.1792 16.4548 16.8696C16.5974 16.3148 17.0043 15.967 17.1087 15.3513C17.3678 13.8313 16.5974 12.0713 15.0635 11.6505C15.6878 10.254 17.1087 9.08874 18.6426 8.88526C18.9209 8.84874 20.8304 8.73396 20.5435 9.21917C19.1991 10.3079 18.493 11.8174 18.5417 13.567L18.5435 13.5653Z" fill="#333333"/>
<path d="M23.7261 13.0105C24.1122 12.3618 23.0374 11.4697 22.4165 11.3427C21.3365 11.1236 20.7122 11.7236 19.7609 11.9984C20.1643 10.0749 22.6513 9.0401 24.2687 10.1862C25.4965 11.0557 24.8826 12.0262 25.2287 12.5305C25.453 12.8575 26.74 12.8279 27.0252 14.214C27.7035 17.5097 22.173 17.6975 22.9313 14.0401C23.0843 13.2975 23.6096 13.2036 23.7243 13.0105H23.7261Z" fill="#333333"/>
<path d="M10.4861 0.753092C11.0582 1.34614 11.0078 2.52701 11.0774 2.59831C11.1139 2.63657 11.7139 2.63657 12.1035 2.87657C13.2652 3.59483 13.3435 5.49918 12.2774 6.34092C10.7417 7.55309 8.52954 6.20353 8.84259 4.3044C9.00606 3.30961 10.2982 2.86787 8.97302 2.00701C7.93476 1.33396 6.62172 1.85918 5.67737 2.43483C5.74867 0.313092 9.12432 -0.659082 10.4878 0.753092H10.4861Z" fill="#333333"/>
<path d="M18.8427 3.8661C22.2983 3.14262 22.4305 8.50436 18.9887 7.98958C16.8114 7.66436 16.7557 4.30262 18.8427 3.8661Z" fill="#333333"/>
<path d="M27.187 2.1234C30.8548 1.29036 30.7679 6.54079 27.6931 6.25209C25.2879 6.02601 25.2879 2.5547 27.187 2.1234Z" fill="#333333"/>
<path d="M12.34 13.1009C13.8895 11.6087 16.5452 13.2713 15.7991 15.4313C14.9956 17.7618 10.9782 16.8748 11.8391 13.9044C11.8791 13.7652 12.2269 13.2087 12.34 13.1009Z" fill="#333333"/>
<path d="M26.0217 35.3044L28.2061 35.4679C28.2617 36.5044 28.813 40.3514 26.9261 39.8853C26.613 39.8088 26.0217 39.3288 26.0217 39.0436V35.3044Z" fill="#333333"/>
<path d="M24.9783 35.3044V39.0436C24.9783 40.021 22.8914 40.0279 22.8914 39.3914V35.3044H24.9783Z" fill="#333333"/>
<path d="M19.1973 21.9443C21.453 21.6487 21.7104 25.2852 19.4843 25.3809C17.2582 25.4765 16.9973 22.233 19.1973 21.9443Z" fill="#333333"/>
<path d="M37.6322 2.47654C37.8775 2.72176 37.9296 3.49915 37.7575 3.82437L31.0688 11.0487C29.6079 12.4018 29.9383 14.6852 28.1922 15.6487C28.5175 14.1757 28.1175 13.2296 27.1557 12.1687C26.9592 11.9531 26.5835 11.8313 26.4635 11.6435C26.3227 11.4244 26.354 11.08 26.2288 10.8348C25.7331 9.86437 25.307 9.29219 24.3557 8.70089C25.1592 6.43828 27.9105 7.30784 29.7575 7.13045C32.154 6.89915 34.3314 3.83306 36.2148 2.45915C36.5522 2.19654 37.3383 2.18437 37.6305 2.47828L37.6322 2.47654Z" fill="#333333"/>
</g>
<defs>
<clipPath id="clip0_2331_1348">
<rect width="37.0435" height="40" fill="white" transform="translate(0.978271)"/>
</clipPath>
</defs>
</svg>
