<svg width="40" height="40" viewBox="0 0 40 40" fill="none" xmlns="http://www.w3.org/2000/svg">
<g clip-path="url(#clip0_2331_1308)">
<path d="M40 39.9999H36.4706V27.4789C36.4706 25.894 29.279 26.1612 28.484 26.7192C28.3462 26.8167 27.8992 27.378 27.8992 27.4789V39.9999H0V22.857H20.9244C22.1748 22.857 27.721 19.3528 29.1832 19.3327C31.0891 19.3074 29.2303 22.6856 30.6807 22.8604C31.5798 22.968 37.3294 19.7814 38.8538 19.4419C39.0756 19.3932 40 19.1747 40 19.5797V39.9999ZM11.7042 33.2167C12.3361 32.5848 12.405 27.3478 11.516 26.7209C10.7294 26.1663 4.51765 26.1024 3.86219 26.9713C3.35126 27.6486 3.31765 32.5511 3.88067 33.1797C4.48571 33.857 11.084 33.8385 11.7042 33.2167ZM17.1008 26.4285C14.9328 26.8553 15.3143 32.4486 16.1244 33.2032C16.8185 33.8503 23.2975 33.8839 23.9597 33.1192C24.6218 32.3545 24.6134 27.5007 23.8605 26.8117C23.2387 26.2436 18.0655 26.2369 17.1008 26.4268V26.4285Z" fill="#333333"/>
<path d="M16.9748 0C18.0319 0.616807 15.4958 1.56975 15.7143 2.20336L19.8319 21.5126H1.76468L1.57812 21.1647L5.67392 2.22353C5.88905 1.27563 4.53779 1.38992 4.2756 0.836975C4.17308 0.618487 4.3277 0 4.36972 0H16.9748ZM8.23863 16.6387C8.32098 16.5983 9.53275 17.1412 10.0084 17.1462C13.1479 17.1815 15.084 14.242 14.9664 11.3361C14.9025 9.76303 13.1311 5.01176 11.0975 5.80336C10.8151 5.91429 6.84871 9.44706 6.58317 9.85882C5.79493 11.0773 5.50586 12.3395 5.78989 13.7916C5.94619 14.5882 7.01174 15.7832 7.03191 15.9076C7.10586 16.3697 5.00333 19.1445 6.6672 19.2874C7.62518 19.3697 7.96132 16.7765 8.24031 16.6387H8.23863Z" fill="#333333"/>
<path d="M35.1261 27.8992H29.2437V40H35.1261V27.8992Z" fill="#333333"/>
<path d="M22.8572 27.8992H17.1429V32.2689H22.8572V27.8992Z" fill="#333333"/>
<path d="M10.7563 27.8992V32.0168L10.5042 32.2689H5.12606L4.87396 32.0168V27.8992H10.7563Z" fill="#333333"/>
<path d="M9.07562 15.4604C8.87057 15.1361 12.1916 11.3041 11.8538 10.4302C10.9697 8.14781 8.31931 14.4554 7.89578 14.6218C7.66889 14.7108 7.17141 13.5176 7.13276 13.2873C6.64536 10.3781 10.0151 8.8705 11.7597 7.22681C14.4924 10.2117 14.2622 16.3613 9.07562 15.4587V15.4604Z" fill="#333333"/>
</g>
<defs>
<clipPath id="clip0_2331_1308">
<rect width="40" height="40" fill="white"/>
</clipPath>
</defs>
</svg>
