<svg width="42" height="40" viewBox="0 0 42 40" fill="none" xmlns="http://www.w3.org/2000/svg">
<path d="M20.2969 6.09375V21.0156C20.2969 21.0438 20.5594 21.2891 20.6391 21.4547C22.9016 26.0578 25.3641 30.5609 27.6407 35.1547C22.7563 37.3766 17.0641 37.0219 12.5594 34.1016L9.42035 37.7969C8.7766 38.2219 7.13597 37.8188 6.33441 37.9922C5.90941 38.3875 5.81254 38.9484 5.3516 39.3531C3.76254 40.7453 1.12035 39.5375 1.06566 37.425C1.00472 35.0656 3.84691 33.7984 5.53285 35.4688C5.86097 35.7938 6.03597 36.6016 6.33441 36.6984L8.6266 36.6922L11.5438 33.3609C4.90785 28.0375 3.77972 18.5406 9.04847 11.8C10.175 10.3594 11.6016 9.23125 13.1063 8.20469L8.6266 3.31094L6.33441 3.30469C6.03597 3.40157 5.86097 4.20938 5.53285 4.53438C3.73754 6.3125 0.776599 4.77188 1.0891 2.27813C1.33285 0.335941 3.87191 -0.646871 5.3516 0.650004C5.81254 1.05469 5.90941 1.61563 6.33441 2.01094L9.32191 2.14844L14.2782 7.62032C16.1328 6.67813 18.2157 6.17032 20.2969 6.09375ZM8.22972 20.8172C7.85629 20.4438 7.11722 20.5891 7.01722 21.1734C6.66566 23.2516 7.95629 27.0141 9.07191 28.8016C9.42504 29.3656 10.4391 30.7297 10.961 29.6438C11.2782 28.9844 10.3 28.0703 9.95629 27.4484C9.22191 26.1234 8.63754 24.2188 8.43754 22.7172C8.37191 22.225 8.5516 21.1375 8.22972 20.8156V20.8172ZM21.511 34.0984C21.2953 33.8828 19.2875 33.825 18.7 33.7078C16.3719 33.2422 14.3891 32.0641 12.5297 30.65C11.3797 30.7281 11.4188 31.4125 12.1688 32.1141C13.4719 33.3344 15.9172 34.475 17.6407 34.9234C18.5407 35.1578 20.4297 35.5328 21.2844 35.2844C21.7688 35.1438 21.8266 34.4141 21.511 34.0984Z" fill="#333333"/>
<path d="M21.7031 6.09381C24.6984 6.18131 27.6625 7.26256 30.0641 9.04068L32.6422 6.17193L35.6688 6.07349C36.05 5.63599 36.0234 5.20162 36.5438 4.76099C39.0266 2.64849 42.1359 5.68287 40.5266 8.11881C39.3344 9.92193 36.3312 9.52193 35.9109 7.35631L33.1078 7.41881L31.0812 9.76724V9.99693C31.4891 10.0579 31.8172 10.4766 32.0984 10.7766C33.8375 12.6344 35.3016 15.2954 35.8797 17.7766C36.4375 20.1735 36.3078 22.5891 35.9219 24.9985L21.7031 20.1547V6.09224V6.09381Z" fill="#333333"/>
<path d="M22.4844 22.0327L35.45 26.4843C34.1125 29.7249 32.0031 32.553 28.9672 34.3718L22.4844 22.0327Z" fill="#333333"/>
</svg>
