<svg width="41" height="40" viewBox="0 0 41 40" fill="none" xmlns="http://www.w3.org/2000/svg">
<g clip-path="url(#clip0_2331_1293)">
<path d="M28.407 17.9846H24.2209V12.9458C24.0209 12.7024 24.024 12.3629 23.8364 12.09C23.5062 11.6078 22.7171 11.0761 22.1341 11.0016C21.4628 10.9164 19.5388 10.9164 18.8674 11.0016C18.2845 11.0745 17.4969 11.6063 17.1651 12.09C16.9775 12.3629 16.9806 12.7024 16.7806 12.9458V17.9846H12.5946V1.16288C12.5946 1.07761 13.0829 0.452802 13.2085 0.381484C13.3915 0.279158 13.6938 0.260554 13.9062 0.148926H27.0953C27.3078 0.260554 27.6101 0.279158 27.793 0.381484C27.9186 0.451251 28.407 1.07761 28.407 1.16288V17.9846ZM18.6349 4.95668L18.9403 3.96443L18.2426 3.11017C17.3016 3.17063 16.162 2.78924 15.5481 3.6528C15.4178 4.10706 15.5992 4.96753 16.0907 5.10707C16.3419 5.17838 17.7698 5.15978 18.1016 5.12257C18.3031 5.09931 18.4178 4.93342 18.6333 4.95668H18.6349ZM22.3651 4.95668C22.5806 4.93187 22.6953 5.09931 22.8969 5.12257C23.2287 5.16133 24.6566 5.17993 24.9078 5.10707C25.3992 4.96753 25.5806 4.10706 25.4504 3.6528C24.8364 2.78924 23.6969 3.17063 22.7558 3.11017L22.0581 3.96443L22.3636 4.95668H22.3651ZM16.5636 6.99389C16.5016 7.00474 16.0705 7.16443 15.9992 7.20474C15.1992 7.6528 15.4411 9.02489 16.3868 9.15358C17.3326 9.28226 18.7326 9.27916 18.9605 8.13962C18.8101 6.98924 17.562 6.82489 16.5636 6.99389ZM23.0752 6.99389C23.0116 7.00474 22.5868 7.16288 22.5109 7.20474C22.1992 7.37683 22.2473 7.74117 22.0628 7.99854L22.0597 8.28381C22.2504 8.69156 22.5775 9.08846 23.0535 9.15358C23.7589 9.2497 25.2643 9.29466 25.4488 8.4373C25.7481 7.03885 24.145 6.81404 23.0752 6.99389Z" fill="#333333"/>
<path d="M26.3915 29.1473C26.317 29.5069 26.2907 29.9473 26.2163 30.2899C25.717 32.6372 24.5341 36.555 23.0581 38.4496C22.9294 38.6139 21.8891 39.6542 21.8054 39.6775C20.8845 39.893 20.0194 39.9348 19.0984 39.617C17.8752 38.6201 17.2194 37.31 16.6008 35.9131C15.8209 34.1535 15.1806 32.1674 14.7822 30.2899C14.7093 29.9473 14.6829 29.5069 14.607 29.1473C14.9341 29.1178 15.3015 29.1876 15.6209 29.1535C19.0597 28.7845 21.9387 28.7845 25.3775 29.1535C25.6969 29.1876 26.0628 29.1193 26.3915 29.1473Z" fill="#333333"/>
<path d="M27.3217 20C27.2892 20.5907 27.3651 21.1984 27.3279 21.7891C27.2411 23.1612 27.0209 24.6031 26.8519 25.9643C26.8194 26.231 26.8845 26.5457 26.8581 26.8233C26.4364 26.9597 25.9992 26.6853 25.7016 26.662C22.3744 26.4031 18.4706 26.3721 15.1481 26.662C14.8814 26.6853 14.5264 26.9504 14.1465 26.8233C14.1186 26.5473 14.1853 26.231 14.1527 25.9643C13.9837 24.6031 13.7636 23.1612 13.6768 21.7891C13.6395 21.1984 13.7155 20.5907 13.683 20H27.3264H27.3217Z" fill="#333333"/>
<path d="M40.345 20.0001C40.3233 20.1768 40.3775 20.3846 40.3512 20.5489C39.9295 23.1133 39.8271 25.1365 38.7729 27.6528C38.5419 28.2047 38.131 28.7226 38.0194 29.3024L37.6271 29.3071L31.7217 27.6156L29.0287 27.1303C29.0457 26.9551 28.9946 26.7443 29.0209 26.583C29.2023 25.4838 29.4349 24.1272 29.4969 23.028C29.5543 22.0326 29.4442 20.997 29.4907 19.9985H40.3434L40.345 20.0001Z" fill="#333333"/>
<path d="M11.5078 20C11.5558 20.9984 11.4457 22.0341 11.5016 23.0295C11.5651 24.1287 11.7961 25.4837 11.9775 26.5845C12.0039 26.7473 11.9527 26.9566 11.9698 27.1318L7.26124 28.0822L3.37132 29.3085L2.97907 29.3039C2.86745 28.724 2.45659 28.2062 2.22559 27.6543C1.2659 25.3628 0.989927 23.0915 0.647291 20.7054C0.616283 20.4915 0.678299 20.2279 0.653492 20.0015H11.5062L11.5078 20Z" fill="#333333"/>
<path d="M10.5775 17.9844H4.68604V7.36429C4.68604 7.23406 5.22247 6.6139 5.39921 6.52708L10.5775 4.80615V17.9844Z" fill="#333333"/>
<path d="M36.314 17.9844H30.4225V4.80615L35.6008 6.52708C35.776 6.6139 36.314 7.23406 36.314 7.36429V17.9844Z" fill="#333333"/>
<path d="M15.6938 39.2247C14.7512 38.9084 13.7667 38.6604 12.8473 38.2728C9.47365 36.8449 6.4814 34.4573 4.37598 31.4728L9.12481 30.0976L12.438 29.4573C12.4442 29.6821 12.4147 29.9115 12.4566 30.1363C12.8566 32.296 13.6039 34.3984 14.3202 36.4898L15.6938 39.2247Z" fill="#333333"/>
<path d="M36.624 31.4728C35.7326 32.7627 34.6488 33.8759 33.5248 34.9627C31.8737 36.248 30.1047 37.4464 28.1527 38.2728C27.2349 38.6619 26.2488 38.9084 25.3062 39.2247L26.6799 36.4898C27.2194 35.1301 27.6054 33.7363 27.962 32.3456C28.2054 31.3953 28.5264 30.4402 28.562 29.4573C28.8814 29.7007 29.1977 29.5658 29.5512 29.6309C30.3636 29.7813 31.2613 30.0278 32.069 30.2139C33.6101 30.5674 35.1248 30.9674 36.624 31.4728Z" fill="#333333"/>
<path d="M22.0504 13.1782H18.9496V17.9844H22.0504V13.1782Z" fill="#333333"/>
</g>
<defs>
<clipPath id="clip0_2331_1293">
<rect width="40" height="40" fill="white" transform="translate(0.5)"/>
</clipPath>
</defs>
</svg>
