<svg width="41" height="40" viewBox="0 0 41 40" fill="none" xmlns="http://www.w3.org/2000/svg">
<g clip-path="url(#clip0_2331_1319)">
<path d="M3.34847 10.6563C3.62347 10.5907 3.90628 10.5766 4.16878 10.7063C5.53909 11.2844 3.91253 13.8313 3.62659 14.8454C-2.12653 35.2547 25.3844 46.4813 35.7047 29.2672C36.2594 28.3407 37.3953 25.0297 38.1953 24.8719C41.0063 24.3204 38.2907 29.2454 37.7922 30.1047C25.7797 50.8579 -6.66091 35.7047 1.86878 13.0875C2.11878 12.4235 2.64378 10.8235 3.34847 10.6579V10.6563Z" fill="#333333"/>
<path d="M5.57812 18.7499C5.95 15.4608 7.23125 12.2327 9.5625 9.85303C11.1578 11.1437 12.9672 12.2452 14.9531 12.8171L14.4844 18.7515H5.57812V18.7499Z" fill="#333333"/>
<path d="M35.5781 18.75H26.6719L26.2031 12.8156C28.2 12.2469 30.0031 11.1578 31.5938 9.85156C33.9359 12.2281 35.1891 15.4641 35.5781 18.7484V18.75Z" fill="#333333"/>
<path d="M14.4844 21.25L14.9547 27.1859C12.9375 27.6375 11.2469 28.8891 9.56409 30.0031C7.12502 27.8297 5.98284 24.4188 5.57971 21.25H14.486H14.4844Z" fill="#333333"/>
<path d="M35.5781 21.25C35.1531 24.425 34.0484 27.8234 31.5938 30.0031C29.9156 28.8859 28.2141 27.6594 26.2031 27.1859L26.6734 21.25H35.5797H35.5781Z" fill="#333333"/>
<path d="M16.3141 0.357891C16.7609 0.804766 16.7 1.5157 16.3078 1.97977L5.73905 9.61727C4.96718 9.85008 1.82811 7.98914 1.62968 7.4532C1.37968 6.7782 1.84061 6.0032 2.54843 5.93758C3.45468 5.85477 4.72186 7.28289 5.42811 7.12508L9.79843 4.05945C8.6703 2.93914 3.45311 2.79539 5.93436 0.426641C6.86249 0.0516408 10.7484 2.05945 11.9359 2.30633C13.0703 1.96883 15.1469 -0.812422 16.3156 0.356328L16.3141 0.357891Z" fill="#333333"/>
<path d="M16.8281 18.75L17.2984 13.4375C19.4172 13.9078 21.7406 13.9078 23.8578 13.4375L24.3281 18.75H16.8281Z" fill="#333333"/>
<path d="M24.3281 21.25L23.8516 26.3969L23.6281 26.4172C21.5125 26.0453 19.425 26.1734 17.3047 26.3969L16.8281 21.25H24.3281Z" fill="#333333"/>
<path d="M23.3766 28.9234C23.6156 29.3078 22.2844 32.9141 21.9625 33.4937C20.6469 35.8656 19.9922 35.1375 18.9891 33.0734C18.725 32.5297 17.5688 29.2578 17.7797 28.9234C19.6156 28.4969 21.5375 28.4969 23.3766 28.9234Z" fill="#333333"/>
<path d="M23.3906 11.0921H17.7656C17.55 10.8499 18.7343 7.44989 18.989 6.92645C19.9922 4.86083 20.6468 4.13426 21.9625 6.50614C22.2734 7.06864 23.6406 10.8108 23.3906 11.0921Z" fill="#333333"/>
<path d="M39.5953 14.4203C40.2141 15.0547 41.4219 21.1015 39.4063 21.1015C37.8453 21.1015 38.3703 19.1203 38.2297 18.2078C38.0891 17.2953 37.3953 15.0265 37.9641 14.4156C38.3422 14.0093 39.2047 14.0187 39.5953 14.4203Z" fill="#333333"/>
<path d="M16.9844 34.5297C14.925 34.0937 12.9672 33.1578 11.3625 31.7969L15.4203 29.5312C15.6016 31.2734 16.2234 32.9719 16.9844 34.5297Z" fill="#333333"/>
<path d="M24.1719 34.5297C24.9328 32.9719 25.5547 31.2734 25.7359 29.5312L29.7937 31.7969C28.1891 33.1578 26.2313 34.0937 24.1719 34.5297Z" fill="#333333"/>
<path d="M29.7969 8.27817C28.475 9.00317 27.275 10.0516 25.7359 10.3141L24.1719 5.47192C26.225 5.91411 28.2625 6.80786 29.7969 8.27974V8.27817Z" fill="#333333"/>
<path d="M16.9844 5.47031L15.4203 10.3125C13.8797 10.05 12.6812 9.00156 11.3594 8.27656C12.8844 6.80313 14.9406 5.93437 16.9844 5.46875V5.47031Z" fill="#333333"/>
<path d="M37.5641 11.2048C36.2719 12.4954 34.0734 9.22511 35.4891 8.42824C36.9047 7.63136 38.4672 10.3032 37.5641 11.2048Z" fill="#333333"/>
</g>
<defs>
<clipPath id="clip0_2331_1319">
<rect width="40.1562" height="40" fill="white" transform="translate(0.421875)"/>
</clipPath>
</defs>
</svg>
